<svg
  viewBox="0 0 1024 1024"
  version="1.1"
  xmlns="http://www.w3.org/2000/svg"
  width="24"
  height="24"
>
  <path
    d="M512 512m-460.8 0a460.8 460.8 0 1 0 921.6 0 460.8 460.8 0 1 0-921.6 0Z"
    fill="#E73A30"
  ></path>
  <path
    d="M584.3968 512l108.6464 108.5952a51.2 51.2 0 0 1-72.448 72.448L512 584.3968l-108.5952 108.6464a51.2 51.2 0 1 1-72.448-72.448L439.6032 512 330.9568 403.4048A51.2 51.2 0 0 1 403.456 330.9568L512 439.6032l108.5952-108.6464a51.2 51.2 0 0 1 72.448 72.448L584.3968 512z"
    fill="#FFFFFF"
  ></path>
</svg>