<svg t="1679388482469" class="icon" viewBox="0 0 1024 1024" version="1.1" xmlns="http://www.w3.org/2000/svg" p-id="4722" width="200" height="200"><path d="M920.7 639.4c-22.1 0-40 17.9-40 40v167H143.3v-167c0-22.1-17.9-40-40-40s-40 17.9-40 40v197c0 27.6 22.4 50 50 50h797.3c27.6 0 50-22.4 50-50v-197c0.1-22.1-17.8-40-39.9-40z" p-id="4723"></path><path d="M482.9 733.8l0.2 0.2 0.8 0.8 0.6 0.6c0.3 0.2 0.5 0.5 0.8 0.7s0.5 0.4 0.8 0.7c0.2 0.2 0.4 0.3 0.6 0.5 0.3 0.2 0.6 0.5 0.9 0.7 0.1 0.1 0.3 0.2 0.4 0.3 1.8 1.4 3.8 2.5 5.8 3.5 0.2 0.1 0.3 0.2 0.5 0.2 0.3 0.1 0.6 0.3 0.9 0.4 0.3 0.1 0.6 0.3 0.9 0.4 0.2 0.1 0.5 0.2 0.7 0.3 0.4 0.2 0.8 0.3 1.2 0.5 0.2 0.1 0.3 0.1 0.5 0.2 0.5 0.2 0.9 0.3 1.4 0.5 0.1 0 0.2 0.1 0.4 0.1 0.5 0.2 1 0.3 1.6 0.4 0.1 0 0.2 0 0.3 0.1 0.5 0.1 1.1 0.3 1.7 0.4h0.3c0.6 0.1 1.1 0.2 1.7 0.3h0.4c0.5 0.1 1 0.1 1.6 0.2 0.2 0 0.5 0 0.7 0.1 0.4 0 0.8 0.1 1.3 0.1h4c10.5 0 21-4.1 28.8-12.2l255.4-265.1c15.3-15.9 14.9-41.2-1.1-56.6-15.9-15.3-41.2-14.9-56.6 1.1L551.7 608.9V137.5c0-22.1-17.9-40-40-40s-40 17.9-40 40v469.4L285.1 413.2c-15.3-15.9-40.6-16.4-56.6-1.1-15.9 15.3-16.4 40.7-1.1 56.6l255.5 265.1z" p-id="4724"></path></svg>