<svg
  viewBox="0 0 1024 1024"
  version="1.1"
  xmlns="http://www.w3.org/2000/svg"
  width="20"
  height="20"
>
  <path
    d="M544 247.466667c-23.466667 0-42.666667 19.2-42.666667 42.666666v196.266667l-115.2 115.2c-17.066667 17.066667-17.066667 42.666667 0 59.733333 8.533333 8.533333 19.2 12.8 29.866667 12.8s21.333333-4.266667 29.866667-12.8l128-128c10.666667-8.533333 12.8-23.466667 12.8-34.133333v-209.066667c0-25.6-19.2-42.666667-42.666667-42.666666z"
  ></path>
  <path
    d="M480 74.666667c-113.066667 0-217.6 42.666667-298.666667 121.6V117.333333c0-23.466667-19.2-42.666667-42.666666-42.666666s-42.666667 19.2-42.666667 42.666666v164.266667c0 32 25.6 57.6 57.6 57.6h164.266667c23.466667 0 42.666667-19.2 42.666666-42.666667s-19.2-42.666667-42.666666-42.666666h-72.533334c64-59.733333 147.2-93.866667 234.666667-93.866667 187.733333 0 341.333333 153.6 341.333333 341.333333s-153.6 341.333333-341.333333 341.333334c-91.733333 0-177.066667-36.266667-241.066667-100.266667-25.6-25.6-46.933333-53.333333-61.866666-85.333333-10.666667-21.333333-36.266667-29.866667-57.6-19.2-21.333333 10.666667-29.866667 36.266667-19.2 57.6 19.2 38.4 46.933333 74.666667 76.8 106.666666 81.066667 81.066667 187.733333 125.866667 300.8 125.866667 234.666667 0 426.666667-192 426.666666-426.666667s-187.733333-426.666667-424.533333-426.666666z"
  ></path>
</svg>