<svg
  viewBox="0 0 1024 1024"
  version="1.1"
  xmlns="http://www.w3.org/2000/svg"
  width="20"
  height="20"
>
  <path d="M512 554.666667a42.666667 42.666667 0 0 0-42.666667 42.666666v128a42.666667 42.666667 0 0 0 85.333334 0v-128a42.666667 42.666667 0 0 0-42.666667-42.666666z m213.333333-170.666667H384V298.666667a128 128 0 0 1 218.453333-90.88 131.413333 131.413333 0 0 1 33.28 58.88 42.666667 42.666667 0 1 0 82.773334-21.333334 217.173333 217.173333 0 0 0-55.893334-97.706666A213.333333 213.333333 0 0 0 298.666667 298.666667v85.333333a128 128 0 0 0-128 128v298.666667a128 128 0 0 0 128 128h426.666666a128 128 0 0 0 128-128v-298.666667a128 128 0 0 0-128-128z m42.666667 426.666667a42.666667 42.666667 0 0 1-42.666667 42.666666H298.666667a42.666667 42.666667 0 0 1-42.666667-42.666666v-298.666667a42.666667 42.666667 0 0 1 42.666667-42.666667h426.666666a42.666667 42.666667 0 0 1 42.666667 42.666667z"></path>
</svg>